<svg width="93" height="71" viewBox="0 0 93 71" fill="none" xmlns="http://www.w3.org/2000/svg">
<path d="M0 0H93V22.1769H0V0Z" fill="#4F548A"/>
<path d="M0 23.6077H93V46.5H0V23.6077Z" fill="#989B9F"/>
<path d="M0 47.9308H93V70.1077H0V47.9308Z" fill="#4F548A"/>
<path d="M11.4475 57.0484H8.16362V58.7111H11.4475C11.6969 58.7111 11.8691 58.6755 11.9641 58.6043C12.0591 58.533 12.1066 58.4024 12.1066 58.2123V57.5413C12.1066 57.3671 12.0591 57.2424 11.9641 57.1672C11.8691 57.088 11.6969 57.0484 11.4475 57.0484ZM6.72656 62.2385V55.9617H12.0947C12.5936 55.9617 12.9538 56.0587 13.1755 56.2527C13.4012 56.4427 13.514 56.7515 13.514 57.1791V58.5805C13.514 59.0001 13.4012 59.3069 13.1755 59.5009C12.9538 59.6949 12.5936 59.7919 12.0947 59.7919H8.16362V62.2385H6.72656Z" fill="white"/>
<path d="M17.9249 59.7325H20.6743L19.3204 57.1791L17.9249 59.7325ZM15.1161 62.2385L18.6672 55.9617H20.0746L23.6731 62.2385H22.0342L21.28 60.8667H17.3014L16.571 62.2385H15.1161Z" fill="white"/>
<path d="M31.6351 57.0484H28.3513V58.7943H31.6351C31.8846 58.7943 32.0568 58.7586 32.1518 58.6874C32.2468 58.6161 32.2943 58.4855 32.2943 58.2955V57.5413C32.2943 57.3671 32.2468 57.2424 32.1518 57.1672C32.0568 57.088 31.8846 57.0484 31.6351 57.0484ZM26.9142 62.2385V55.9617H32.2824C32.7812 55.9617 33.1415 56.0587 33.3632 56.2527C33.5888 56.4427 33.7017 56.7515 33.7017 57.1791V58.6518C33.7017 59.0714 33.5888 59.3802 33.3632 59.5781C33.1375 59.7721 32.7773 59.8691 32.2824 59.8691H31.4629L34.3608 62.2385H32.2646L29.7349 59.8691H28.3513V62.2385H26.9142Z" fill="white"/>
<path d="M40.5888 57.0841V62.2385H39.128V57.0841H36.248V55.9617H43.4808V57.0841H40.5888Z" fill="white"/>
<path d="M46.4725 62.2385V55.9617H47.4701L51.8881 59.6613C51.9792 59.7325 52.0485 59.7899 52.096 59.8335C52.1633 59.8929 52.2266 59.9522 52.286 60.0116C52.3969 60.1145 52.5018 60.2254 52.6007 60.3442L52.5532 59.5959L52.5414 59.2575V55.9617H53.8537V62.2385H52.8561L48.248 58.3608L47.957 58.0936C47.8937 58.0381 47.8541 58.0005 47.8383 57.9807C47.8066 57.9491 47.769 57.9055 47.7254 57.8501L47.767 58.4024L47.7848 58.8477V62.2385H46.4725Z" fill="white"/>
<path d="M58.2706 62.2385V55.9617H64.6958V57.0306H59.7314V58.432H62.6293V59.5009H59.7314V61.0568H64.7552V62.2385H58.2706Z" fill="white"/>
<path d="M73.3882 57.0484H70.1043V58.7943H73.3882C73.6376 58.7943 73.8098 58.7586 73.9048 58.6874C73.9998 58.6161 74.0473 58.4855 74.0473 58.2955V57.5413C74.0473 57.3671 73.9998 57.2424 73.9048 57.1672C73.8098 57.088 73.6376 57.0484 73.3882 57.0484ZM68.6673 62.2385V55.9617H74.0354C74.5343 55.9617 74.8945 56.0587 75.1162 56.2527C75.3419 56.4427 75.4547 56.7515 75.4547 57.1791V58.6518C75.4547 59.0714 75.3419 59.3802 75.1162 59.5781C74.8906 59.7721 74.5303 59.8691 74.0354 59.8691H73.216L76.1138 62.2385H74.0176L71.4879 59.8691H70.1043V62.2385H68.6673Z" fill="white"/>
<path d="M85.0735 57.0603H80.9642V58.4083H84.8775C85.4911 58.4083 85.9048 58.5132 86.1186 58.723C86.3363 58.9328 86.4452 59.3228 86.4452 59.8929V60.7539C86.4452 61.32 86.3363 61.71 86.1186 61.9237C85.9009 62.1336 85.4872 62.2385 84.8775 62.2385H80.9998C80.3822 62.2385 79.9666 62.1336 79.7528 61.9237C79.539 61.7139 79.4321 61.324 79.4321 60.7539V60.5817L80.7207 60.3145V61.0568H85.1566V59.6256H81.2433C80.6336 59.6256 80.2219 59.5207 80.0081 59.3109C79.7944 59.1011 79.6875 58.7111 79.6875 58.1411V57.4463C79.6875 56.8802 79.7944 56.4922 80.0081 56.2824C80.2259 56.0686 80.6376 55.9617 81.2433 55.9617H84.8062C85.3922 55.9617 85.7979 56.0627 86.0236 56.2646C86.2492 56.4665 86.3621 56.8248 86.3621 57.3394V57.47L85.0735 57.7729V57.0603Z" fill="white"/>
<path d="M21.183 33.4763H17.246V37.449H21.183V36.101L22.6438 36.4039V37.1462C22.6438 37.7162 22.535 38.1062 22.3172 38.316C22.0995 38.5258 21.6898 38.6307 21.088 38.6307H17.341C16.7353 38.6307 16.3236 38.5278 16.1058 38.3219C15.892 38.1121 15.7852 37.7202 15.7852 37.1462V33.8386C15.7852 33.2725 15.892 32.8845 16.1058 32.6747C16.3236 32.4609 16.7353 32.354 17.341 32.354H21.088C21.6977 32.354 22.1094 32.4589 22.3232 32.6687C22.5369 32.8785 22.6438 33.2685 22.6438 33.8386V34.4324L21.183 34.664V33.4763Z" fill="white"/>
<path d="M28.2662 36.1248H31.0156L29.6617 33.5713L28.2662 36.1248ZM25.4574 38.6307L29.0085 32.354H30.4158L34.0144 38.6307H32.3754L31.6213 37.259H27.6427L26.9123 38.6307H25.4574Z" fill="white"/>
<path d="M41.9764 33.4407H38.6926V35.1034H41.9764C42.2258 35.1034 42.398 35.0678 42.493 34.9965C42.588 34.9253 42.6356 34.7946 42.6356 34.6046V33.9336C42.6356 33.7594 42.588 33.6347 42.493 33.5595C42.398 33.4803 42.2258 33.4407 41.9764 33.4407ZM37.2555 38.6307V32.354H42.6237C43.1225 32.354 43.4827 32.451 43.7044 32.645C43.9301 32.835 44.0429 33.1438 44.0429 33.5713V34.9728C44.0429 35.3924 43.9301 35.6992 43.7044 35.8932C43.4827 36.0872 43.1225 36.1842 42.6237 36.1842H38.6926V38.6307H37.2555Z" fill="white"/>
<path d="M47.5097 38.6307V32.354H48.9705V38.6307H47.5097Z" fill="white"/>
<path d="M56.3149 33.4763V38.6307H54.8541V33.4763H51.974V32.354H59.2068V33.4763H56.3149Z" fill="white"/>
<path d="M62.9883 36.1248H65.7377L64.3838 33.5713L62.9883 36.1248ZM60.1795 38.6307L63.7306 32.354H65.138L68.7365 38.6307H67.0976L66.3434 37.259H62.3648L61.6344 38.6307H60.1795Z" fill="white"/>
<path d="M71.9776 38.6307V32.354H73.4384V37.449H78.1475V38.6307H71.9776Z" fill="white"/>
<path d="M29.6758 14.3077V8.03094H31.1366V13.126H35.8456V14.3077H29.6758Z" fill="white"/>
<path d="M39.2055 14.3077V8.03094H40.6663V14.3077H39.2055Z" fill="white"/>
<path d="M45.0772 14.3077V8.03094H46.0749L50.4929 11.7305C50.584 11.8017 50.6532 11.8591 50.7008 11.9027C50.7681 11.9621 50.8314 12.0214 50.8908 12.0808C51.0016 12.1838 51.1065 12.2946 51.2055 12.4134L51.158 11.6652L51.1461 11.3267V8.03094H52.4585V14.3077H51.4608L46.8528 10.43L46.5618 10.1628C46.4984 10.1074 46.4589 10.0697 46.443 10.05C46.4114 10.0183 46.3737 9.97473 46.3302 9.91931L46.3718 10.4716L46.3896 10.9169V14.3077H45.0772Z" fill="white"/>
<path d="M56.8753 14.3077V8.03094H58.348V10.6497L61.8278 8.03094H63.9419L59.7851 10.9882L64.4526 14.3077H62.1069L58.348 11.5464V14.3077H56.8753Z" fill="white"/>
</svg>
